<?xml version="1.0" encoding="utf-8"?>
<!-- Generator: Adobe Illustrator 23.0.0, SVG Export Plug-In . SVG Version: 6.00 Build 0)  -->
<svg version="1.1" id="Layer_1" xmlns="http://www.w3.org/2000/svg" xmlns:xlink="http://www.w3.org/1999/xlink" x="0px" y="0px"
	 viewBox="0 0 612 792" style="enable-background:new 0 0 612 792;" xml:space="preserve">
<style type="text/css">
	.st0{fill:#FEEA89;stroke:#FBA919;stroke-miterlimit:10;}
	.st1{fill:#E08B26;stroke:#FBA919;stroke-miterlimit:10;}
	.st2{fill:#EBE846;stroke:#FBA919;stroke-miterlimit:10;}
</style>
<g>
	<path class="st0" d="M495.84,348.12c-17.6-9.95-34.12-14.98-46.58-17.63c-2.78,3.63-5.8,7.07-9.05,10.29
		c10.16,2.13,23.71,6.21,38.15,14.38c18.04,10.2,29.98,22.56,36.84,30.86c-6.86,8.31-18.8,20.65-36.84,30.85
		c-7.08,4-13.95,7.02-20.3,9.33c-14.56,5.25-30.29,6.26-45.45,3.08c-9.8-2.05-20.99-5.37-32.81-10.7
		c-22.56-10.16-38.07-23.48-47.14-32.56c0.2-0.2,0.41-0.41,0.62-0.61c-6.4,0.55-12.09,0.73-16.92,0.73
		c11.18,11.18,30.29,27.58,58.07,40.1c14.56,6.56,28.34,10.65,40.42,13.18c18.67,3.91,38.04,2.67,55.98-3.8
		c7.83-2.84,16.29-6.56,25.01-11.49c22.22-12.57,36.92-27.76,45.38-37.99C532.76,375.9,518.06,360.69,495.84,348.12z"/>
	<path class="st1" d="M515.2,386.02c-6.86,8.31-18.8,20.65-36.84,30.85c-7.08,4-13.95,7.02-20.3,9.33
		c-14.56,5.25-30.29,6.26-45.45,3.08c-9.8-2.05-20.99-5.37-32.81-10.7c-22.56-10.16-38.07-23.48-47.14-32.56
		c0.2-0.2,0.41-0.41,0.62-0.61c14.54-1.26,32.7-4.47,52.5-11.97c14.93-5.67,27.56-12.52,37.9-19.26c5.98-3.91,11.52-8.4,16.53-13.4
		c10.16,2.13,23.71,6.21,38.15,14.38C496.4,365.36,508.34,377.72,515.2,386.02z"/>
</g>
<g>
	<path class="st2" d="M327.81,373.68c-0.01,0.21-0.01,0.41-0.01,0.62v-0.61L327.81,373.68z"/>
	<path class="st2" d="M372.95,265.78c-0.03,0.49-0.07,0.97-0.12,1.45c-1.58,15.55-5.67,37.16-16.34,60.84
		c-8.7,19.31-19.27,34.43-28.68,45.6c0-1.18,0.02-2.43,0.06-3.73c0.04-1.76,0.12-3.63,0.25-5.6c0.04-0.69,0.09-1.39,0.15-2.1
		c0.03-0.46,0.07-0.93,0.11-1.41c0.03-0.4,0.07-0.8,0.11-1.21c0.11-1.21,0.24-2.46,0.4-3.73v-0.01c6.79-8.6,14.05-19.62,20.16-33.18
		c8.09-17.94,11.52-34.42,12.98-46.81c0.55-0.7,1.09-1.38,1.63-2.03c2.29-2.78,4.95-5.23,7.95-7.22
		C372.05,266.35,372.49,266.06,372.95,265.78z"/>
	<path class="st2" d="M327.81,373.68c-0.01,0.21-0.01,0.41-0.01,0.62v-0.61L327.81,373.68z"/>
	<path class="st2" d="M372.95,265.78c-0.03,0.49-0.07,0.97-0.12,1.45c-1.58,15.55-5.67,37.16-16.34,60.84
		c-8.7,19.31-19.27,34.43-28.68,45.6c0-1.18,0.02-2.43,0.06-3.73c0.04-1.76,0.12-3.63,0.25-5.6c0.04-0.69,0.09-1.39,0.15-2.1
		c0.03-0.46,0.07-0.93,0.11-1.41c0.03-0.4,0.07-0.8,0.11-1.21c0.11-1.21,0.24-2.46,0.4-3.73v-0.01c6.79-8.6,14.05-19.62,20.16-33.18
		c8.09-17.94,11.52-34.42,12.98-46.81c0.55-0.7,1.09-1.38,1.63-2.03c2.29-2.78,4.95-5.23,7.95-7.22
		C372.05,266.35,372.49,266.06,372.95,265.78z"/>
</g>
<g>
	<path class="st0" d="M299.45,385.41c0.21,0.2,0.42,0.41,0.62,0.61c-9.08,9.08-24.59,22.4-47.14,32.56
		c-11.82,5.33-23.01,8.65-32.82,10.7c-15.15,3.18-30.88,2.17-45.44-3.08c-6.36-2.31-13.22-5.33-20.31-9.33
		c-18.03-10.2-29.97-22.54-36.84-30.85c6.87-8.3,18.81-20.66,36.84-30.86c14.44-8.17,28-12.25,38.15-14.38
		c-3.24-3.22-6.26-6.66-9.04-10.29c-12.45,2.64-28.99,7.67-46.59,17.63c-22.21,12.57-36.92,27.78-45.38,38.02
		c8.46,10.23,23.17,25.42,45.38,37.99c8.73,4.93,17.19,8.65,25.01,11.49c17.94,6.47,37.31,7.71,55.98,3.8
		c12.08-2.53,25.86-6.62,40.42-13.18c27.79-12.52,46.89-28.92,58.07-40.1C311.54,386.14,305.84,385.96,299.45,385.41z"/>
	<path class="st1" d="M300.07,386.02c-9.08,9.08-24.59,22.4-47.14,32.56c-11.82,5.33-23.01,8.65-32.82,10.7
		c-15.15,3.18-30.88,2.17-45.44-3.08c-6.36-2.31-13.22-5.33-20.31-9.33c-18.03-10.2-29.97-22.54-36.84-30.85
		c6.87-8.3,18.81-20.66,36.84-30.86c14.44-8.17,28-12.25,38.15-14.38c5.01,5,10.56,9.49,16.54,13.4
		c10.32,6.74,22.95,13.59,37.89,19.26c19.79,7.5,37.96,10.71,52.51,11.97C299.66,385.61,299.87,385.82,300.07,386.02z"/>
</g>
<g>
	<path class="st2" d="M272.08,261.96c-2.79-3.36-6.04-6.31-9.69-8.72c-0.21-0.14-0.43-0.28-0.65-0.42
		c-0.6,4.52-0.89,9.09-0.88,13.66c0.09,0.05,0.17,0.11,0.25,0.16c3.02,1.99,5.68,4.44,7.97,7.22c0.75,0.92,1.52,1.89,2.3,2.9
		c0.04,0.05,0.09,0.12,0.14,0.17C271.27,271.93,271.45,266.92,272.08,261.96z M315.62,368.98l-0.01-0.01
		c-3.51-3.56-7.58-8.04-11.83-13.46c0.13,1.05,0.24,2.07,0.34,3.08c0.05,0.47,0.1,0.93,0.14,1.39c0.09,1.02,0.17,2.02,0.24,2.99
		c0.03,0.34,0.05,0.67,0.07,1c0.04,0.53,0.07,1.04,0.09,1.55c0.02,0.3,0.04,0.61,0.05,0.9c0.03,0.45,0.05,0.89,0.06,1.32
		c0.03,0.65,0.05,1.29,0.07,1.92c0.01,0.28,0.02,0.56,0.02,0.82c0.01,0.21,0.01,0.41,0.01,0.61c0.02,0.88,0.03,1.72,0.03,2.54
		c0,0,0,0,0,0.01c1.8,2.14,3.55,4.13,5.24,5.98c1.66,1.83,3.92,2.74,6.19,2.75C316.25,378.36,316.05,373.87,315.62,368.98z
		 M317.08,369.23c-0.41,4.8-0.62,9.2-0.69,13.14c2.27-0.01,4.54-0.92,6.2-2.75c1.68-1.84,3.41-3.8,5.21-5.93v0.61
		c0-0.21,0-0.41,0.01-0.62v-0.01c0-1.18,0.02-2.43,0.06-3.73c0.04-1.76,0.12-3.63,0.25-5.6c0.04-0.69,0.09-1.39,0.15-2.1
		c0.03-0.46,0.07-0.93,0.11-1.41c0.03-0.4,0.07-0.8,0.11-1.21c0.12-1.21,0.25-2.45,0.4-3.73
		C324.63,361.27,320.57,365.7,317.08,369.23z M372.17,254.01c-0.12-0.56-0.24-1.14-0.37-1.72c-0.5,0.32-0.99,0.64-1.47,0.95
		c-3.31,2.19-6.28,4.81-8.88,7.79c0.12,0.52,0.22,1.04,0.33,1.54c0.73,3.54,0.89,7.15,0.53,10.74c-0.09,0.84-0.18,1.7-0.28,2.58
		c0.55-0.7,1.09-1.38,1.63-2.03c2.29-2.78,4.95-5.23,7.95-7.22c0.44-0.29,0.88-0.58,1.34-0.86
		C373.21,261.84,372.97,257.89,372.17,254.01z M328.89,355.89c-0.16,1.27-0.29,2.52-0.4,3.73
		C328.61,358.41,328.74,357.17,328.89,355.89z"/>
	<path class="st0" d="M470.13,286.08c-2.68,9.67-6.03,18.27-9.55,25.83c-3.11,6.62-6.92,12.84-11.32,18.58
		c-2.78,3.63-5.8,7.07-9.05,10.29c-5.01,5-10.55,9.49-16.53,13.4c-10.34,6.74-22.97,13.59-37.9,19.26
		c-19.8,7.5-37.96,10.71-52.5,11.97c-6.4,0.55-12.09,0.73-16.92,0.73c-4.82,0-10.52-0.18-16.91-0.73
		c-14.55-1.26-32.72-4.47-52.51-11.97c-14.94-5.67-27.57-12.52-37.89-19.26c-5.98-3.91-11.53-8.4-16.54-13.4
		c-3.24-3.22-6.26-6.66-9.04-10.29c-4.41-5.74-8.21-11.96-11.32-18.58c-3.53-7.56-6.89-16.16-9.57-25.83
		c-6.81-24.59-6.47-45.72-5.21-58.94c13.2-1.27,34.38-1.62,58.96,5.21c19.49,5.39,34.74,13.54,45.41,20.47
		c-0.6,4.52-0.89,9.09-0.88,13.66c-2.17-1.42-4.58-2.9-7.23-4.39c-0.33-0.19-0.66-0.38-1-0.56c-0.33-0.19-0.68-0.38-1.02-0.56
		c-0.35-0.19-0.7-0.38-1.05-0.56c-0.35-0.19-0.7-0.38-1.06-0.56c-1.02-0.53-2.07-1.06-3.14-1.58c-0.38-0.19-0.77-0.37-1.16-0.56
		c-0.06-0.03-0.12-0.06-0.18-0.09c-0.67-0.32-1.35-0.63-2.05-0.95c-2.07-0.93-4.24-1.85-6.5-2.73c-0.44-0.17-0.88-0.34-1.33-0.51
		c-2.69-1.02-5.52-1.99-8.47-2.88c-0.98-0.3-1.96-0.58-2.96-0.86c-19.97-5.54-37.13-5.25-47.87-4.24
		c-1.03,10.73-1.3,27.9,4.24,47.87c2.17,7.83,4.9,14.82,7.76,20.96c0.26,0.54,0.52,1.08,0.79,1.62c0.13,0.28,0.28,0.56,0.42,0.84
		c0.5,0.99,1.03,1.97,1.58,2.93c0.19,0.34,0.38,0.67,0.58,1.01c0.05,0.1,0.11,0.2,0.18,0.3c0.24,0.42,0.49,0.84,0.75,1.26
		c0.82,1.35,1.68,2.67,2.59,3.96c0.31,0.46,0.64,0.92,0.97,1.37c0.11,0.17,0.23,0.33,0.36,0.49c0.39,0.54,0.79,1.07,1.2,1.59
		c1.04,1.36,2.13,2.68,3.27,3.97c0.52,0.6,1.05,1.18,1.59,1.76c0.17,0.19,0.34,0.37,0.53,0.56c0.44,0.48,0.9,0.95,1.38,1.42
		c0.66,0.68,1.35,1.36,2.06,2.01c0.46,0.44,0.92,0.87,1.39,1.27c0.87,0.8,1.76,1.57,2.67,2.31c0.34,0.29,0.69,0.57,1.04,0.85
		c0.47,0.39,0.95,0.76,1.44,1.13c0.29,0.23,0.59,0.45,0.89,0.67c0.65,0.49,1.32,0.97,1.99,1.44c0.75,0.53,1.51,1.05,2.28,1.55
		c8.39,5.47,18.65,11.05,30.77,15.63c0.72,0.27,1.44,0.54,2.16,0.8c0.54,0.2,1.08,0.39,1.62,0.57c0.5,0.18,1.01,0.36,1.51,0.52
		c0.78,0.27,1.55,0.53,2.32,0.77c0.73,0.24,1.44,0.46,2.16,0.68c0.29,0.09,0.57,0.17,0.86,0.26c1.27,0.38,2.53,0.74,3.78,1.08
		c0.41,0.12,0.82,0.23,1.22,0.33c0.59,0.15,1.17,0.31,1.75,0.45c0.73,0.19,1.47,0.37,2.19,0.54c0.85,0.2,1.68,0.39,2.5,0.57
		c0.57,0.13,1.14,0.25,1.71,0.37c0.96,0.2,1.91,0.39,2.84,0.57c1.22,0.23,2.42,0.44,3.61,0.64c1.33,0.23,2.64,0.43,3.92,0.61
		c0.48,0.06,0.96,0.13,1.43,0.19c0.57,0.07,1.14,0.15,1.7,0.22c0.01,0,0.01,0,0.02,0c0.57,0.07,1.13,0.13,1.69,0.19
		c1.67,0.19,3.29,0.34,4.85,0.46c0.53,0.05,1.04,0.09,1.55,0.12c1.02,0.07,2.01,0.13,2.98,0.18c0.61,0.03,1.2,0.06,1.79,0.08
		c0.35,0.01,0.7,0.02,1.04,0.04c0.69,0.02,1.36,0.04,2.01,0.05c0.66,0.01,1.29,0.02,1.92,0.02h0.01c0.41,0.01,0.81,0.01,1.21,0.01
		c0-0.29,0-0.59-0.01-0.9c1.8,2.14,3.55,4.13,5.24,5.98c1.66,1.83,3.92,2.74,6.19,2.75h0.06c2.27-0.01,4.54-0.92,6.2-2.75
		c1.68-1.84,3.41-3.8,5.21-5.93v0.85c0.4,0,0.8,0,1.22-0.01h0.01c0.62,0,1.26-0.01,1.92-0.02c0.65-0.01,1.33-0.03,2.01-0.05
		c0.92-0.03,1.86-0.07,2.83-0.12c0.49-0.03,0.98-0.05,1.48-0.08c0.49-0.03,0.99-0.06,1.5-0.1c0.51-0.03,1.02-0.07,1.55-0.12
		c1.56-0.12,3.18-0.27,4.86-0.46c0.55-0.06,1.11-0.12,1.68-0.19c0.01,0,0.01,0,0.02,0c0.56-0.07,1.13-0.14,1.7-0.22
		c0.47-0.06,0.95-0.12,1.43-0.19c1.28-0.18,2.59-0.38,3.92-0.61c1.19-0.19,2.39-0.41,3.62-0.64c0.83-0.16,1.67-0.33,2.52-0.51
		c0.33-0.06,0.67-0.14,1.01-0.21c0.33-0.07,0.67-0.15,1.01-0.22c0.81-0.17,1.62-0.36,2.43-0.55c0.11-0.03,0.21-0.05,0.32-0.08
		c0.64-0.15,1.29-0.32,1.94-0.48c0.48-0.12,0.95-0.24,1.43-0.36c0.12-0.04,0.25-0.07,0.37-0.1c0.05-0.02,0.09-0.03,0.14-0.04
		c0.24-0.06,0.48-0.12,0.72-0.19c1.52-0.41,3.07-0.86,4.62-1.33c0.83-0.25,1.66-0.51,2.49-0.78c0.83-0.26,1.67-0.54,2.51-0.83
		c0.54-0.18,1.08-0.37,1.63-0.56c0.43-0.15,0.87-0.31,1.31-0.47c0.72-0.26,1.44-0.53,2.16-0.8c12.13-4.58,22.38-10.16,30.76-15.63
		c0.67-0.43,1.34-0.88,1.99-1.35c0.07-0.05,0.14-0.1,0.21-0.15c0.03-0.01,0.05-0.03,0.08-0.05c0.15-0.1,0.29-0.21,0.44-0.31
		c0.48-0.34,0.96-0.68,1.42-1.03c0.04-0.04,0.09-0.07,0.13-0.1c0.27-0.2,0.55-0.4,0.81-0.6c0.05-0.04,0.09-0.07,0.14-0.11
		c0.47-0.36,0.93-0.72,1.38-1.09c0.43-0.34,0.85-0.68,1.26-1.03c0.84-0.68,1.66-1.39,2.46-2.13c0.47-0.42,0.93-0.84,1.39-1.27
		c0.49-0.46,0.98-0.92,1.46-1.4c0.01-0.01,0.01-0.01,0.02-0.02c0.28-0.27,0.56-0.56,0.83-0.84c1.06-1.06,2.08-2.15,3.06-3.27
		c0.38-0.42,0.75-0.84,1.11-1.27c0.04-0.05,0.08-0.1,0.13-0.15c0.43-0.51,0.86-1.03,1.28-1.56c0.32-0.4,0.64-0.8,0.95-1.21
		c0.41-0.52,0.81-1.05,1.2-1.59c0.12-0.16,0.24-0.32,0.36-0.49c0.33-0.45,0.66-0.91,0.97-1.37c0.3-0.42,0.59-0.85,0.87-1.28
		c0.15-0.23,0.3-0.45,0.45-0.68c0.09-0.13,0.17-0.26,0.26-0.39c0.15-0.23,0.3-0.47,0.45-0.71c0.19-0.3,0.38-0.6,0.56-0.9
		c0.19-0.32,0.39-0.64,0.58-0.97c0.19-0.32,0.39-0.65,0.57-0.97c0.35-0.6,0.69-1.2,1.01-1.81c0.32-0.58,0.63-1.16,0.92-1.75
		c0.15-0.28,0.29-0.56,0.42-0.84c0.27-0.54,0.53-1.08,0.79-1.62c2.86-6.14,5.58-13.13,7.77-20.96c5.53-19.97,5.25-37.14,4.24-47.87
		c-10.73-1.01-27.92-1.3-47.87,4.24c-0.5,0.14-1.01,0.28-1.5,0.43c-1.5,0.43-2.96,0.88-4.39,1.35c-0.74,0.24-1.47,0.49-2.19,0.74
		c-0.78,0.27-1.55,0.54-2.31,0.83c-0.35,0.12-0.7,0.25-1.05,0.39c-0.67,0.25-1.33,0.51-1.99,0.77c-0.66,0.26-1.31,0.52-1.95,0.79
		c-1.04,0.43-2.06,0.87-3.07,1.31c-0.43,0.19-0.86,0.38-1.28,0.59c-0.2,0.09-0.39,0.17-0.59,0.27c-0.39,0.18-0.79,0.36-1.18,0.55
		c-0.06,0.02-0.12,0.05-0.18,0.08c-1.48,0.71-2.91,1.42-4.28,2.13c-0.38,0.2-0.75,0.4-1.12,0.6c-0.71,0.38-1.4,0.75-2.08,1.13
		c-0.01,0.01-0.02,0.01-0.03,0.02c-0.33,0.18-0.65,0.36-0.98,0.55c-0.85,0.49-1.69,0.98-2.5,1.46c-0.3,0.18-0.59,0.35-0.88,0.53
		c-0.29,0.18-0.58,0.35-0.86,0.53c-0.29,0.17-0.57,0.35-0.84,0.52c-0.28,0.17-0.55,0.35-0.82,0.52c0.26-3.94,0.02-7.89-0.78-11.77
		c-0.12-0.56-0.24-1.14-0.37-1.72c10.63-6.81,25.6-14.69,44.6-19.94c24.59-6.83,45.74-6.48,58.96-5.21
		C476.63,240.36,476.96,261.49,470.13,286.08z"/>
	<path class="st1" d="M452.65,293.32c-2.19,7.83-4.91,14.82-7.77,20.96c-0.26,0.54-0.52,1.08-0.79,1.62
		c-0.13,0.28-0.27,0.56-0.42,0.84c-0.29,0.59-0.6,1.17-0.92,1.75c-0.32,0.61-0.66,1.21-1.01,1.81c-0.18,0.32-0.38,0.65-0.57,0.97
		c-0.19,0.33-0.39,0.65-0.58,0.97c-0.18,0.3-0.37,0.6-0.56,0.9c-0.15,0.24-0.3,0.48-0.45,0.71c-0.09,0.13-0.17,0.26-0.26,0.39
		c-0.15,0.23-0.3,0.45-0.45,0.68c-0.28,0.43-0.57,0.86-0.87,1.28c-0.31,0.46-0.64,0.92-0.97,1.37c-0.12,0.17-0.24,0.33-0.36,0.49
		c-0.39,0.54-0.79,1.07-1.2,1.59c-0.31,0.41-0.63,0.81-0.95,1.21c-0.42,0.53-0.85,1.05-1.28,1.56c-0.05,0.05-0.09,0.1-0.13,0.15
		c-0.36,0.43-0.73,0.85-1.11,1.27c-0.98,1.12-2,2.21-3.06,3.27c-0.27,0.28-0.55,0.57-0.83,0.84c-0.01,0.01-0.01,0.01-0.02,0.02
		c-0.48,0.48-0.97,0.94-1.46,1.4c-0.46,0.43-0.92,0.85-1.39,1.27c-0.8,0.74-1.62,1.45-2.46,2.13c-0.41,0.35-0.83,0.69-1.26,1.03
		c-0.45,0.37-0.91,0.73-1.38,1.09c-0.05,0.04-0.09,0.07-0.14,0.11c-0.26,0.2-0.54,0.4-0.81,0.6c-0.04,0.03-0.09,0.06-0.13,0.1
		c-0.47,0.35-0.94,0.69-1.42,1.03c-0.15,0.1-0.29,0.21-0.44,0.31c-0.03,0.02-0.05,0.04-0.08,0.05c-0.07,0.05-0.14,0.1-0.21,0.15
		c-0.65,0.46-1.32,0.91-1.99,1.35c-8.38,5.47-18.63,11.05-30.76,15.63c-0.72,0.27-1.44,0.54-2.16,0.8
		c-0.44,0.16-0.88,0.32-1.31,0.47c-0.55,0.19-1.09,0.38-1.63,0.56c-0.84,0.29-1.68,0.57-2.51,0.83c-0.83,0.27-1.66,0.53-2.49,0.78
		c-1.55,0.47-3.1,0.92-4.62,1.33c-0.24,0.07-0.48,0.13-0.72,0.19c-0.05,0.01-0.09,0.02-0.14,0.04c-0.12,0.03-0.25,0.06-0.37,0.1
		c-0.48,0.12-0.95,0.24-1.43,0.36c-0.65,0.16-1.3,0.33-1.94,0.48c-0.11,0.03-0.21,0.05-0.32,0.08c-0.81,0.19-1.62,0.38-2.43,0.55
		c-0.34,0.07-0.68,0.15-1.01,0.22c-0.34,0.07-0.68,0.15-1.01,0.21c-0.85,0.18-1.69,0.35-2.52,0.51c-1.23,0.23-2.43,0.45-3.62,0.64
		c-1.33,0.23-2.64,0.43-3.92,0.61c-0.48,0.07-0.96,0.13-1.43,0.19c-0.57,0.08-1.14,0.15-1.7,0.22c-0.01,0-0.01,0-0.02,0
		c-0.57,0.07-1.13,0.13-1.68,0.19c-1.68,0.19-3.3,0.34-4.86,0.46c-0.52,0.04-1.04,0.08-1.55,0.12c-0.51,0.04-1.01,0.07-1.5,0.1
		c-0.5,0.03-0.99,0.05-1.48,0.08c-0.97,0.05-1.91,0.09-2.83,0.12c-0.68,0.02-1.36,0.04-2.01,0.05c-0.66,0.01-1.3,0.02-1.92,0.02
		h-0.01c-0.42,0.01-0.82,0.01-1.22,0.01v-0.24c0-0.21,0-0.41,0.01-0.62v-0.01c9.41-11.17,19.98-26.29,28.68-45.6
		c10.67-23.68,14.76-45.29,16.34-60.84c0.05-0.48,0.09-0.96,0.12-1.45c0.27-0.17,0.54-0.35,0.82-0.52c0.27-0.17,0.55-0.35,0.84-0.52
		c0.28-0.18,0.57-0.35,0.86-0.53c0.29-0.18,0.58-0.35,0.88-0.53c0.81-0.48,1.65-0.97,2.5-1.46c0.33-0.19,0.65-0.37,0.98-0.55
		c0.01-0.01,0.02-0.01,0.03-0.02c0.68-0.37,1.38-0.75,2.08-1.13c0.37-0.2,0.74-0.4,1.12-0.6c1.37-0.71,2.8-1.42,4.28-2.13
		c0.06-0.03,0.12-0.06,0.18-0.08c0.39-0.19,0.79-0.37,1.18-0.55c0.2-0.1,0.39-0.18,0.59-0.27c0.42-0.21,0.85-0.4,1.28-0.59
		c1.01-0.44,2.03-0.88,3.07-1.31c0.64-0.27,1.29-0.53,1.95-0.79c0.66-0.26,1.32-0.52,1.99-0.77c0.35-0.14,0.7-0.27,1.05-0.39
		c0.76-0.29,1.53-0.56,2.31-0.83c0.72-0.25,1.45-0.5,2.19-0.74c1.43-0.47,2.89-0.92,4.39-1.35c0.49-0.15,1-0.29,1.5-0.43
		c19.95-5.54,37.14-5.25,47.87-4.24C457.9,256.18,458.18,273.35,452.65,293.32z"/>
	<path class="st2" d="M304.9,373.63c-9.39-11.18-19.95-26.28-28.64-45.56c-6.57-14.56-10.65-28.34-13.18-40.42
		c-1.46-7-2.2-14.09-2.22-21.17c0.09,0.05,0.17,0.11,0.25,0.16c3.02,1.99,5.68,4.44,7.97,7.22c0.75,0.92,1.52,1.89,2.3,2.9
		c0.04,0.05,0.09,0.12,0.14,0.17c0.01,0.01,0.01,0.02,0.01,0.02c0.23,4.33,0.8,8.65,1.69,12.93c2.05,9.81,5.37,21,10.69,32.82
		c6.03,13.37,13.17,24.26,19.87,32.81c0.13,1.05,0.24,2.07,0.34,3.08c0.05,0.47,0.1,0.93,0.14,1.39c0.09,1.02,0.17,2.02,0.24,2.99
		c0.03,0.34,0.05,0.67,0.07,1c0.04,0.53,0.07,1.04,0.09,1.55c0.02,0.3,0.04,0.61,0.05,0.9c0.03,0.45,0.05,0.89,0.06,1.32
		c0.03,0.65,0.05,1.29,0.07,1.92c0.01,0.28,0.02,0.56,0.02,0.82c0.01,0.21,0.01,0.41,0.01,0.61
		C304.89,371.97,304.9,372.81,304.9,373.63z"/>
	<path class="st1" d="M304.91,374.54c-0.4,0-0.8,0-1.21-0.01h-0.01c-0.63,0-1.26-0.01-1.92-0.02c-0.65-0.01-1.32-0.03-2.01-0.05
		c-0.34-0.02-0.69-0.03-1.04-0.04c-0.59-0.02-1.18-0.05-1.79-0.08c-0.97-0.05-1.96-0.11-2.98-0.18c-0.51-0.04-1.02-0.08-1.55-0.12
		c-1.56-0.12-3.18-0.27-4.85-0.46c-0.56-0.06-1.12-0.12-1.69-0.19c-0.01,0-0.01,0-0.02,0c-0.56-0.07-1.13-0.15-1.7-0.22
		c-0.47-0.06-0.95-0.13-1.43-0.19c-1.28-0.18-2.59-0.38-3.92-0.61c-1.19-0.2-2.39-0.41-3.61-0.64c-0.93-0.18-1.88-0.37-2.84-0.57
		c-0.57-0.12-1.14-0.24-1.71-0.37c-0.82-0.18-1.65-0.37-2.5-0.57c-0.72-0.17-1.46-0.35-2.19-0.54c-0.58-0.14-1.16-0.3-1.75-0.45
		c-0.4-0.1-0.81-0.21-1.22-0.33c-1.25-0.34-2.51-0.7-3.78-1.08c-0.29-0.09-0.57-0.17-0.86-0.26c-0.72-0.22-1.43-0.44-2.16-0.68
		c-0.77-0.24-1.54-0.5-2.32-0.77c-0.5-0.16-1.01-0.34-1.51-0.52c-0.54-0.18-1.08-0.37-1.62-0.57c-0.72-0.26-1.44-0.53-2.16-0.8
		c-12.12-4.58-22.38-10.16-30.77-15.63c-0.77-0.5-1.53-1.02-2.28-1.55c-0.67-0.47-1.34-0.95-1.99-1.44c-0.3-0.22-0.6-0.44-0.89-0.67
		c-0.49-0.37-0.97-0.74-1.44-1.13c-0.35-0.28-0.7-0.56-1.04-0.85c-0.91-0.74-1.8-1.51-2.67-2.31c-0.47-0.42-0.93-0.84-1.39-1.27
		c-0.71-0.65-1.4-1.33-2.06-2.01c-0.48-0.47-0.94-0.94-1.38-1.42c-0.19-0.19-0.36-0.37-0.53-0.56c-0.54-0.58-1.07-1.16-1.59-1.76
		c-1.14-1.29-2.23-2.61-3.27-3.97c-0.41-0.52-0.81-1.05-1.2-1.59c-0.13-0.16-0.25-0.32-0.36-0.49c-0.33-0.45-0.66-0.91-0.97-1.37
		c-0.91-1.29-1.77-2.61-2.59-3.96c-0.26-0.42-0.51-0.84-0.75-1.26c-0.07-0.1-0.13-0.2-0.18-0.3c-0.2-0.34-0.39-0.67-0.58-1.01
		c-0.55-0.96-1.08-1.94-1.58-2.93c-0.14-0.28-0.29-0.56-0.42-0.84c-0.27-0.54-0.53-1.08-0.79-1.62c-2.86-6.14-5.59-13.13-7.76-20.96
		c-5.54-19.97-5.27-37.14-4.24-47.87c10.74-1.01,27.9-1.3,47.87,4.24c1,0.28,1.99,0.57,2.96,0.86c2.95,0.89,5.78,1.86,8.47,2.88
		c0.45,0.17,0.89,0.34,1.33,0.51c2.26,0.88,4.43,1.8,6.5,2.73c0.7,0.32,1.38,0.64,2.05,0.95c0.06,0.03,0.12,0.06,0.18,0.09
		c0.39,0.19,0.78,0.37,1.16,0.56c1.07,0.52,2.12,1.05,3.14,1.58c0.36,0.18,0.71,0.37,1.06,0.56c0.35,0.18,0.7,0.37,1.05,0.56
		c0.34,0.18,0.69,0.37,1.02,0.56c0.34,0.18,0.67,0.37,1,0.56c2.65,1.49,5.06,2.97,7.23,4.39c0.02,7.08,0.76,14.17,2.22,21.17
		c2.53,12.08,6.61,25.86,13.18,40.42c8.69,19.28,19.25,34.38,28.64,45.56c0,0,0,0,0,0.01C304.91,373.95,304.91,374.25,304.91,374.54
		z"/>
	<path class="st2" d="M304.9,373.63c-9.39-11.18-19.95-26.28-28.64-45.56c-6.57-14.56-10.65-28.34-13.18-40.42
		c-1.46-7-2.2-14.09-2.22-21.17c0.09,0.05,0.17,0.11,0.25,0.16c3.02,1.99,5.68,4.44,7.97,7.22c0.75,0.92,1.52,1.89,2.3,2.9
		c0.04,0.05,0.09,0.12,0.14,0.17c0.01,0.01,0.01,0.02,0.01,0.02c0.23,4.33,0.8,8.65,1.69,12.93c2.05,9.81,5.37,21,10.69,32.82
		c6.03,13.37,13.17,24.26,19.87,32.81c0.13,1.05,0.24,2.07,0.34,3.08c0.05,0.47,0.1,0.93,0.14,1.39c0.09,1.02,0.17,2.02,0.24,2.99
		c0.03,0.34,0.05,0.67,0.07,1c0.04,0.53,0.07,1.04,0.09,1.55c0.02,0.3,0.04,0.61,0.05,0.9c0.03,0.45,0.05,0.89,0.06,1.32
		c0.03,0.65,0.05,1.29,0.07,1.92c0.01,0.28,0.02,0.56,0.02,0.82c0.01,0.21,0.01,0.41,0.01,0.61
		C304.89,371.97,304.9,372.81,304.9,373.63z"/>
</g>
<g>
	<path class="st0" d="M372.17,254.01c-0.12-0.56-0.24-1.14-0.37-1.72c-2.69-12.35-7.72-28.48-17.42-45.63
		c-12.57-22.22-27.78-36.93-38.02-45.38c-10.23,8.45-25.42,23.16-37.99,45.38c-4.93,8.72-8.65,17.18-11.5,25.01
		c-2.47,6.88-4.18,13.97-5.13,21.15c-0.6,4.52-0.89,9.09-0.88,13.66c0.02,7.08,0.76,14.17,2.22,21.17
		c2.53,12.08,6.61,25.86,13.18,40.42c8.69,19.28,19.25,34.38,28.64,45.56c0,0,0,0,0,0.01c1.8,2.14,3.55,4.13,5.24,5.98
		c1.66,1.83,3.92,2.74,6.19,2.75h0.06c2.27-0.01,4.54-0.92,6.2-2.75c1.68-1.84,3.41-3.8,5.21-5.93l0.01-0.01v-0.01
		c9.41-11.17,19.98-26.29,28.68-45.6c10.67-23.68,14.76-45.29,16.34-60.84c0.05-0.48,0.09-0.96,0.12-1.45
		C373.21,261.84,372.97,257.89,372.17,254.01z M349.05,322.7c-6.11,13.56-13.37,24.58-20.16,33.18v0.01
		c-4.26,5.38-8.32,9.81-11.81,13.34c-0.21,0.21-0.41,0.41-0.61,0.61c-0.28-0.28-0.56-0.57-0.85-0.86l-0.01-0.01
		c-3.51-3.56-7.58-8.04-11.83-13.46c-6.7-8.55-13.84-19.44-19.87-32.81c-5.32-11.82-8.64-23.01-10.69-32.82
		c-0.89-4.28-1.46-8.6-1.69-12.93c0,0,0-0.01-0.01-0.02c-0.25-5-0.07-10.01,0.56-14.97c0.76-5.95,2.17-11.82,4.22-17.52
		c2.31-6.35,5.33-13.22,9.33-20.3c10.2-18.04,22.54-29.98,30.84-36.85c8.31,6.87,20.66,18.81,30.87,36.85
		c7.83,13.86,11.91,26.89,14.11,36.89c0.12,0.52,0.22,1.04,0.33,1.54c0.73,3.54,0.89,7.15,0.53,10.74c-0.09,0.84-0.18,1.7-0.28,2.58
		C360.57,288.28,357.14,304.76,349.05,322.7z"/>
	<path class="st1" d="M362.31,273.31c-0.09,0.84-0.18,1.7-0.28,2.58c-1.46,12.39-4.89,28.87-12.98,46.81
		c-6.11,13.56-13.37,24.58-20.16,33.18v0.01c-4.26,5.38-8.32,9.81-11.81,13.34c-0.21,0.21-0.41,0.41-0.61,0.61
		c-0.28-0.28-0.56-0.57-0.85-0.86l-0.01-0.01c-3.51-3.56-7.58-8.04-11.83-13.46c-6.7-8.55-13.84-19.44-19.87-32.81
		c-5.32-11.82-8.64-23.01-10.69-32.82c-0.89-4.28-1.46-8.6-1.69-12.93c0,0,0-0.01-0.01-0.02c-0.25-5-0.07-10.01,0.56-14.97
		c0.76-5.95,2.17-11.82,4.22-17.52c2.31-6.35,5.33-13.22,9.33-20.3c10.2-18.04,22.54-29.98,30.84-36.85
		c8.31,6.87,20.66,18.81,30.87,36.85c7.83,13.86,11.91,26.89,14.11,36.89c0.12,0.52,0.22,1.04,0.33,1.54
		C362.51,266.11,362.67,269.72,362.31,273.31z"/>
</g>
<circle class="st1" cx="316.36" cy="427.36" r="23.99"/>
<circle class="st0" cx="316.36" cy="427.36" r="11.96"/>
</svg>
